<?xml version="1.0" encoding="UTF-8" standalone="no"?>
<svg
   xmlns:dc="http://purl.org/dc/elements/1.1/"
   xmlns:cc="http://creativecommons.org/ns#"
   xmlns:rdf="http://www.w3.org/1999/02/22-rdf-syntax-ns#"
   xmlns:svg="http://www.w3.org/2000/svg"
   xmlns="http://www.w3.org/2000/svg"
   xmlns:sodipodi="http://sodipodi.sourceforge.net/DTD/sodipodi-0.dtd"
   xmlns:inkscape="http://www.inkscape.org/namespaces/inkscape"
   width="544.23114"
   height="388.92871"
   viewBox="0 0 544.23114 388.92871"
   version="1.1"
   id="svg2216"
   inkscape:version="1.0.1 (3bc2e813f5, 2020-09-07)"
   sodipodi:docname="traditional-diamond-monogram-010101.svg">
  <defs
     id="defs2210" />
  <sodipodi:namedview
     id="base"
     pagecolor="#ffffff"
     bordercolor="#666666"
     borderopacity="1.0"
     inkscape:pageopacity="0.0"
     inkscape:pageshadow="2"
     inkscape:zoom="0.98994949"
     inkscape:cx="315.92707"
     inkscape:cy="206.32314"
     inkscape:document-units="px"
     inkscape:current-layer="layer1"
     showgrid="false"
     units="px"
     inkscape:window-width="1366"
     inkscape:window-height="705"
     inkscape:window-x="-8"
     inkscape:window-y="-8"
     inkscape:window-maximized="1"
     fit-margin-top="10"
     fit-margin-left="10"
     fit-margin-bottom="10"
     fit-margin-right="10"
     inkscape:showpageshadow="false"
     scale-x="1"
     inkscape:document-rotation="0" />
  <metadata
     id="metadata2213">
    <rdf:RDF>
      <cc:Work
         rdf:about="">
        <dc:format>image/svg+xml</dc:format>
        <dc:type
           rdf:resource="http://purl.org/dc/dcmitype/StillImage" />
        <dc:title />
      </cc:Work>
    </rdf:RDF>
  </metadata>
  <g
     inkscape:label="Layer 1"
     inkscape:groupmode="layer"
     id="layer1"
     transform="translate(122.22258,44.143158)">
    
<g
       aria-label="M"
       transform="matrix(0.83255791,0,0,1.0400157,11.39743,0)"
       id="g861"
       style="font-size:107.446px;line-height:1.25;font-family:Arial;-inkscape-font-specification:'Arial, Normal';fill:#010101;fill-opacity:1;stroke-width:1.07466">
      <path
         id="path859"
         style="font-style:italic;font-variant:normal;font-weight:normal;font-stretch:normal;font-family:Merriweather;-inkscape-font-specification:'Merriweather Italic';fill:#010101;fill-opacity:1;stroke-width:0.999996"
         d="M 149.27148 20.023438 L 149.27148 149.30273 L 20.013672 149.30273 L 20.013672 152.30273 L 149.27148 152.30273 L 149.27148 280.02344 L 152.27148 280.02344 L 152.27148 152.30273 L 280.01367 152.30273 L 280.01367 149.30273 L 152.27148 149.30273 L 152.27148 20.023438 L 149.27148 20.023438 z M 65.154297 51.240234 L 64.630859 56.751953 L 69.664062 58.005859 L 55.816406 127.90234 L 50.828125 129.48438 L 50.390625 134.28516 L 72.755859 134.28516 L 73.148438 129.48438 L 64.980469 127.90234 L 74.240234 78.03125 L 75.890625 62.916016 L 78.048828 77.486328 L 85.5625 135.26758 L 94.455078 134.44922 L 115.02734 76.175781 L 119.01172 62.806641 L 117.70117 78.794922 L 116.08398 127.95703 L 108.39648 129.48438 L 108.00391 134.28516 L 131.28516 134.28516 L 131.67773 129.48438 L 126.95117 127.84766 L 128.04297 58.005859 L 133.25 56.751953 L 133.73047 51.240234 L 115.21094 51.240234 C 113.6676 55.823547 112.05221 60.516793 110.36328 65.318359 C 108.67435 70.083549 106.96999 74.884715 105.25195 79.722656 C 103.5339 84.560598 101.83151 89.380075 100.14258 94.181641 C 98.453651 98.946831 96.852105 103.62177 95.337891 108.20508 L 92.498047 117.31641 L 91.84375 108.20508 L 84.679688 51.240234 L 65.154297 51.240234 z "
         transform="matrix(1.2011176,0,0,0.96152395,-13.689654,0)" />
    </g>



<g
       aria-label="D"
       id="text34"
       style="font-size:111.746px;line-height:1.25;font-family:Arial;-inkscape-font-specification:'Arial, Normal';fill:#010101;fill-opacity:1;stroke-width:1"
       transform="translate(-6.1428571)">
      <path
         d="m 178.08781,129.5387 8.07539,-1.63691 8.83928,-69.895811 -7.25694,-1.25496 0.65476,-5.510911 h 16.20536 q 3.60118,-0.05456 7.20237,-0.436508 3.60119,-0.436508 7.4752,-0.436508 8.40278,0 14.3502,2.400793 5.94741,2.400793 9.71229,6.820435 3.81945,4.419642 5.62004,10.639878 1.85516,6.165673 1.96429,13.749996 0.10912,7.202379 -1.2004,13.859124 -1.30952,6.656742 -3.92857,12.440472 -2.56448,5.72917 -6.38393,10.42162 -3.76488,4.6379 -8.56646,7.91171 -4.80159,3.27381 -10.53075,5.01984 -5.72917,1.69147 -12.22222,1.52778 -0.6002,0 -1.36409,-0.0546 -0.76389,-0.0546 -1.6369,-0.10912 -0.81846,-0.0546 -1.63691,-0.10913 -0.81845,-0.0546 -1.47321,-0.10913 -0.92758,-0.0546 -2.29167,-0.16369 -1.36408,-0.10913 -2.89186,-0.16369 -1.52778,-0.0546 -3.05556,-0.10913 -1.47321,-0.0546 -2.61904,-0.0546 h -13.58631 z m 19.31547,-2.45536 q 1.20039,0.43651 2.94642,0.76389 1.8006,0.27282 3.65576,0.49107 1.90972,0.16369 3.71031,0.32738 1.8006,0.10913 3.11012,0.10913 5.2381,-0.38194 9.38492,-2.34623 4.20139,-1.96429 7.36607,-5.12897 3.21924,-3.21924 5.51091,-7.36607 2.29167,-4.20138 3.71032,-8.94841 1.47321,-4.74702 2.07341,-9.875986 0.65476,-5.128967 0.6002,-10.20337 -0.10913,-7.857141 -1.47322,-13.204362 -1.36408,-5.401784 -4.20138,-8.730156 -2.78274,-3.328373 -7.14782,-4.801586 -4.36508,-1.473214 -10.53075,-1.473214 -1.14583,0 -2.56448,0.109127 -1.36409,0.05456 -2.78274,0.218253 -1.41865,0.163691 -2.67361,0.381945 -1.2004,0.218254 -2.01885,0.436508 z"
         style="font-style:italic;font-variant:normal;font-weight:normal;font-stretch:normal;font-family:Merriweather;-inkscape-font-specification:'Merriweather Italic';fill:#010101;fill-opacity:1;stroke-width:1"
         id="path859" />
    </g>



<g
       aria-label="S"
       id="text42"
       style="font-size:111.746px;line-height:1.25;font-family:Arial;-inkscape-font-specification:'Arial, Normal';fill:#010101;fill-opacity:1;stroke-width:1"
       transform="translate(5.2857143)">
      <path
         d="m 62.433029,231.35219 h 6.547617 l 1.364087,10.53076 q 1.09127,0.76388 2.564483,1.36408 1.473214,0.6002 3.110119,1.03671 1.636904,0.43651 3.328372,0.65476 1.746031,0.21825 3.382935,0.21825 2.619047,0 5.510912,-0.70932 2.946427,-0.76389 5.456347,-2.34623 2.50992,-1.63691 4.201388,-4.20139 1.746031,-2.56448 1.964285,-6.22024 0.163686,-3.2738 -0.873015,-5.94741 -1.036706,-2.67361 -2.891865,-4.85615 -1.855158,-2.23711 -4.365078,-4.09226 -2.50992,-1.90973 -5.347221,-3.65576 -3.328372,-2.07341 -6.656744,-4.4742 -3.273809,-2.4008 -5.892855,-5.34722 -2.619047,-2.94643 -4.310515,-6.49306 -1.636905,-3.60119 -1.691468,-8.02083 -0.109127,-5.01984 1.964285,-9.16666 2.127976,-4.20139 5.729165,-7.14782 3.655753,-3.00099 8.457339,-4.63789 4.801586,-1.69147 10.148807,-1.69147 3.928571,0 7.093251,0.43651 3.16468,0.4365 5.62004,1.14583 2.50992,0.65476 4.25595,1.47321 1.8006,0.81846 2.94643,1.58234 l -2.56448,14.3502 h -5.94742 l -1.52778,-9.82143 q -1.63691,-1.20039 -4.583333,-1.96428 -2.946428,-0.81845 -6.220237,-0.81845 -2.455356,0 -5.01984,0.70932 -2.50992,0.65476 -4.637895,2.12798 -2.073413,1.47321 -3.382936,3.76488 -1.309524,2.29166 -1.309524,5.45634 0,3.38294 1.09127,6.11111 1.09127,2.72818 3.000991,5.01984 1.909722,2.29167 4.474205,4.31052 2.564484,1.96428 5.510912,3.76488 3.273808,2.07341 6.43849,4.25595 3.219247,2.18254 5.729167,4.85615 2.56448,2.67361 4.14682,6.00198 1.58234,3.27381 1.69147,7.58432 0.10913,5.8383 -2.01885,10.47619 -2.12797,4.6379 -6.00198,7.91171 -3.819444,3.21924 -9.112102,4.96527 -5.238094,1.69147 -11.403766,1.69147 -3.819444,0 -7.420633,-0.49107 -3.546626,-0.43651 -6.547618,-1.14583 -2.946428,-0.70933 -5.128967,-1.52778 -2.182539,-0.87302 -3.164681,-1.63691 z"
         style="font-style:italic;font-variant:normal;font-weight:normal;font-stretch:normal;font-family:Merriweather;-inkscape-font-specification:'Merriweather Italic';fill:#010101;fill-opacity:1;stroke-width:1"
         id="path855" />
    </g>



<g
       aria-label="P"
       id="text38"
       style="font-size:111.746px;line-height:1.25;font-family:Arial;-inkscape-font-specification:'Arial, Normal';fill:#010101;fill-opacity:1;stroke-width:1"
       transform="translate(2.8571428)">
      <path
         d="m 173.57093,245.5387 8.07539,-1.63691 8.78472,-69.89581 -7.25694,-1.25496 0.65476,-5.51091 h 13.91369 q 1.96428,0 3.81944,-0.10913 1.90972,-0.16369 3.81944,-0.32738 1.90973,-0.21825 3.87401,-0.32738 2.01885,-0.16369 4.14683,-0.16369 12.00396,0 18.49701,5.23809 6.49306,5.2381 6.65675,16.09623 0.10913,5.34722 -1.09127,9.87599 -1.2004,4.52877 -3.4375,8.23908 -2.18254,3.65576 -5.29266,6.43849 -3.11012,2.78274 -6.875,4.69246 -3.76488,1.85516 -8.12995,2.8373 -4.31052,0.92758 -8.89385,0.92758 -3.65575,0 -5.72917,-0.0546 -2.07341,-0.0546 -3.54662,-0.16369 l -2.78274,23.46229 10.9127,1.58234 -0.43651,4.80159 h -30.1736 z m 22.80753,-32.19245 q 2.50992,0.4365 4.74702,0.60019 2.23711,0.1637 4.25595,0.1637 5.89286,-0.0546 9.93056,-1.69147 4.09226,-1.69147 6.60218,-4.91072 2.56448,-3.2738 3.71031,-7.96626 1.14584,-4.74703 1.25496,-10.96726 0.0546,-3.81945 -0.60019,-6.82044 -0.65477,-3.00099 -2.4008,-5.01984 -1.74603,-2.01885 -4.74702,-3.00099 -2.94643,-1.0367 -7.52976,-0.92758 -1.03671,0 -2.29167,0.10913 -1.25496,0.10913 -2.61904,0.27282 -1.36409,0.10912 -2.67361,0.32738 -1.30953,0.21825 -2.4008,0.43651 z"
         style="font-style:italic;font-variant:normal;font-weight:normal;font-stretch:normal;font-family:Merriweather;-inkscape-font-specification:'Merriweather Italic';fill:#010101;fill-opacity:1;stroke-width:1"
         id="path852" />
    </g>




    <g
       transform="matrix(1.0660474,0,0,1.0660474,256.72855,-168.12845)"
       id="g819">
      <path
         inkscape:connector-curvature="0"
         id="rect1805"
         d="m -254.72193,267.76507 -43.26563,31.36914 43.26563,31.36914 z"
         style="opacity:1;fill:#010101;fill-opacity:1;stroke:none;stroke-width:6.935;stroke-linecap:butt;stroke-linejoin:round;stroke-miterlimit:4;stroke-dasharray:none;stroke-dashoffset:0;stroke-opacity:1;paint-order:fill markers stroke" />
      <path
         inkscape:connector-curvature="0"
         style="opacity:1;fill:#010101;fill-opacity:1;stroke:none;stroke-width:6.935;stroke-linecap:butt;stroke-linejoin:round;stroke-miterlimit:4;stroke-dasharray:none;stroke-dashoffset:0;stroke-opacity:1;paint-order:fill markers stroke"
         d="M 53.405844,267.76507 96.67143,299.13421 53.405844,330.50335 Z"
         id="path1816" />
      <path
         inkscape:connector-curvature="0"
         id="rect1820"
         d="m -468.59775,50.44603 h 295.60587 V 346.0519 h -295.60587 z"
         style="opacity:1;fill:none;fill-opacity:1;stroke:#010101;stroke-width:7.14794;stroke-linecap:butt;stroke-linejoin:round;stroke-miterlimit:4;stroke-dasharray:none;stroke-dashoffset:0;stroke-opacity:1;paint-order:fill markers stroke"
         transform="matrix(0.81778784,-0.5755198,0.81778784,0.5755198,0,0)" />
    </g>
  </g>
</svg>
